<?xml version="1.0" standalone="no"?>
<!DOCTYPE svg PUBLIC "-//W3C//DTD SVG 20010904//EN"
 "http://www.w3.org/TR/2001/REC-SVG-20010904/DTD/svg10.dtd">
<svg version="1.0" xmlns="http://www.w3.org/2000/svg"
 width="206.000000pt" height="195.000000pt" viewBox="0 0 206.000000 195.000000"
 preserveAspectRatio="xMidYMid meet">
<metadata>
Created by potrace 1.14, written by Peter Selinger 2001-2017
</metadata>
<g transform="translate(0.000000,195.000000) scale(0.100000,-0.100000)"
fill="#000000" stroke="none">
<path d="M892 1875 c-298 -67 -506 -345 -489 -651 9 -159 70 -294 183 -408 73
-72 145 -118 246 -154 64 -23 88 -26 198 -26 110 0 134 3 198 26 100 36 173
82 246 154 72 72 117 144 154 246 23 64 26 88 26 198 0 110 -3 134 -26 198
-36 101 -82 173 -154 246 -119 118 -252 176 -419 182 -64 2 -123 -1 -163 -11z"/>
<path d="M413 771 c-248 -208 -393 -455 -393 -668 l0 -73 1010 0 1010 0 0 74
c0 122 -80 333 -173 453 -57 75 -215 226 -257 248 -33 17 -34 17 -52 -8 -31
-42 -138 -123 -215 -161 -268 -134 -584 -86 -798 123 -34 34 -65 61 -68 61 -3
0 -32 -22 -64 -49z"/>
</g>
</svg>
